<svg width="200" height="200" viewBox="0 0 200 200" fill="none" xmlns="http://www.w3.org/2000/svg">
<g clip-path="url(#clip0_1_201)">
<path d="M29.2251 127.586C45.3656 127.586 58.4501 114.291 58.4501 97.8916C58.4501 81.4919 45.3656 68.1973 29.2251 68.1973C13.0845 68.1973 0 81.4919 0 97.8916C0 114.291 13.0845 127.586 29.2251 127.586Z" fill="#F2F2F2"/>
<path d="M29.4863 99.1296C35.9226 99.1296 41.1403 93.8281 41.1403 87.2884C41.1403 80.7487 35.9226 75.4473 29.4863 75.4473C23.05 75.4473 17.8323 80.7487 17.8323 87.2884C17.8323 93.8281 23.05 99.1296 29.4863 99.1296Z" fill="#2F2E41"/>
<path d="M58.6085 29.747C58.5983 35.62 56.8742 41.358 53.6544 46.2354C50.4346 51.1129 45.8637 54.9106 40.5196 57.1485C35.1755 59.3864 29.2983 59.9638 23.6312 58.8078C17.9641 57.6519 12.7616 54.8144 8.68167 50.6542C4.60173 46.494 1.82755 41.198 0.709947 35.4358C-0.407654 29.6736 0.181519 23.7041 2.40296 18.2822C4.6244 12.8603 8.37833 8.22939 13.1901 4.97519C18.0018 1.721 23.6552 -0.0103657 29.4353 4.66904e-05C33.276 -0.00316116 37.0795 0.764846 40.6271 2.25994C44.1748 3.75502 47.3967 5.94772 50.1076 8.712C52.8186 11.4763 54.9652 14.7577 56.4241 18.3676C57.8829 21.9774 58.6253 25.8447 58.6085 29.747Z" fill="#F2F2F2"/>
<path d="M98.5754 127.586C114.716 127.586 127.8 114.291 127.8 97.8916C127.8 81.4919 114.716 68.1973 98.5754 68.1973C82.4348 68.1973 69.3503 81.4919 69.3503 97.8916C69.3503 114.291 82.4348 127.586 98.5754 127.586Z" fill="#F2F2F2"/>
<path d="M98.4902 59.3887C114.631 59.3887 127.715 46.0941 127.715 29.6944C127.715 13.2946 114.631 0 98.4902 0C82.3496 0 69.2651 13.2946 69.2651 29.6944C69.2651 46.0941 82.3496 59.3887 98.4902 59.3887Z" fill="#F2F2F2"/>
<path d="M169.719 59.3887C185.859 59.3887 198.944 46.0941 198.944 29.6944C198.944 13.2946 185.859 0 169.719 0C153.578 0 140.494 13.2946 140.494 29.6944C140.494 46.0941 153.578 59.3887 169.719 59.3887Z" fill="#F2F2F2"/>
<path d="M170.775 127.586C186.915 127.586 200 114.291 200 97.8916C200 81.4919 186.915 68.1973 170.775 68.1973C154.634 68.1973 141.55 81.4919 141.55 97.8916C141.55 114.291 154.634 127.586 170.775 127.586Z" fill="#F2F2F2"/>
<path d="M58.6086 170.306C58.6086 176.178 56.8946 181.92 53.6833 186.803C50.472 191.686 45.9076 195.492 40.5675 197.74C35.2273 199.987 29.3511 200.575 23.682 199.429C18.0129 198.284 12.8055 195.455 8.71828 191.303C4.63109 187.15 1.84767 181.859 0.720011 176.099C-0.407644 170.338 0.171112 164.368 2.38309 158.942C4.59506 153.516 8.34091 148.878 13.1469 145.616C17.953 142.353 23.6033 140.611 29.3835 140.611C33.2262 140.594 37.0342 141.35 40.5877 142.836C44.1411 144.322 47.3697 146.509 50.0869 149.27C52.8041 152.031 54.9562 155.311 56.4188 158.921C57.8814 162.532 58.6257 166.401 58.6086 170.306Z" fill="#F2F2F2"/>
<path d="M100.368 200C116.509 200 129.593 186.705 129.593 170.306C129.593 153.906 116.509 140.611 100.368 140.611C84.2278 140.611 71.1433 153.906 71.1433 170.306C71.1433 186.705 84.2278 200 100.368 200Z" fill="#F2F2F2"/>
<path d="M15.8379 20.0348C17.0464 16.1216 19.7944 12.5327 23.5949 11.2098C27.3956 9.88699 32.9608 11.9021 35.8181 14.7955C41.0446 20.088 42.32 38.2696 38.7292 44.0152C38.015 43.9768 35.5504 43.9484 34.8276 43.9209L33.805 40.4578V43.8867C32.6533 43.8506 31.4926 43.8256 30.323 43.8118C26.4013 43.7624 22.6512 42.17 19.861 39.3695C17.0709 36.5689 15.4581 32.7783 15.3616 28.7945C15.268 24.9834 15.3617 21.5768 15.8379 20.0348Z" fill="#2F2E41"/>
<path d="M28.95 33.0037C33.55 33.0037 37.279 29.2149 37.279 24.5411C37.279 19.8672 33.55 16.0784 28.95 16.0784C24.3501 16.0784 20.6211 19.8672 20.6211 24.5411C20.6211 29.2149 24.3501 33.0037 28.95 33.0037Z" fill="#9E616A"/>
<path d="M21.762 17.1088L31.3519 12.2297C33.3125 13.1274 35.0011 14.5417 36.2425 16.3259C37.4838 18.1101 38.2328 20.1993 38.4117 22.3767L38.6508 25.2859L34.6349 24.2472L34.195 20.5273L33.513 23.9571L31.6598 23.4779L31.6774 17.7027L29.823 23.4738L23.2039 21.9287L21.762 17.1088Z" fill="#2F2E41"/>
<path d="M90.5499 86.7493C92.8287 86.7493 94.676 84.8723 94.676 82.557C94.676 80.2416 92.8287 78.3646 90.5499 78.3646C88.2711 78.3646 86.4238 80.2416 86.4238 82.557C86.4238 84.8723 88.2711 86.7493 90.5499 86.7493Z" fill="#2F2E41"/>
<path d="M97.1517 102.68C102.925 102.68 107.604 97.9252 107.604 92.0596C107.604 86.194 102.925 81.439 97.1517 81.439C91.3788 81.439 86.699 86.194 86.699 92.0596C86.699 97.9252 91.3788 102.68 97.1517 102.68Z" fill="#2F2E41"/>
<path d="M98.0167 102.678C102.708 102.678 106.511 98.8136 106.511 94.0472C106.511 89.2807 102.708 85.4167 98.0167 85.4167C93.3256 85.4167 89.5227 89.2807 89.5227 94.0472C89.5227 98.8136 93.3256 102.678 98.0167 102.678Z" fill="#9E616A"/>
<path d="M103.785 85.2496C102.297 84.3276 100.592 83.8289 98.8486 83.8055C97.1056 83.7822 95.3884 84.2351 93.8765 85.1169C92.3647 85.9986 91.1138 87.2769 90.2546 88.818C89.3954 90.3591 88.9595 92.1065 88.9925 93.8774C93.3206 94.9815 97.8676 95.8264 102.483 94.1415L103.573 91.4309L104.216 94.1435C105.622 94.7272 107.031 95.2211 108.44 94.1378C108.498 92.3719 108.098 90.6216 107.281 89.0619C106.464 87.5021 105.259 86.1876 103.785 85.2496Z" fill="#2F2E41"/>
<path d="M86.7083 71.1764C83.8552 69.8471 80.2752 70.4708 77.8995 72.5551C75.5238 74.6394 74.3944 78.0317 74.853 81.1867C75.3209 84.4052 77.2466 87.1768 79.0217 89.8846C80.7968 92.5923 82.531 95.5595 82.529 98.8129C82.5276 101.156 81.6116 103.403 79.982 105.061C78.3523 106.72 76.142 107.653 73.8357 107.658C76.5425 108.842 79.3676 110.049 82.3114 109.909C85.2551 109.768 88.3406 107.846 88.8208 104.891C89.1668 102.763 88.1389 100.687 87.2816 98.7131C85.8853 95.4968 84.876 92.121 84.2757 88.659C83.9894 87.0067 83.8029 85.2696 84.3331 83.6806C84.7553 82.5032 85.5387 81.4948 86.5678 80.8041C87.5969 80.1134 88.8172 79.7769 90.0487 79.8444L91.0214 78.9553C91.4541 75.7965 89.5615 72.5056 86.7083 71.1764Z" fill="#2F2E41"/>
<path d="M157.791 18.0795C157.39 20.2692 156.733 22.4021 155.832 24.4328C150.677 35.514 165.358 31.9021 170.605 31.9021C176.342 31.9021 181.83 34.9671 180.992 21.3486C180.634 15.5314 176.341 10.795 170.605 10.795C165.705 10.795 158.816 13.0079 157.791 18.0795Z" fill="#2F2E41"/>
<path d="M169.746 31.8996C174.407 31.8996 178.186 28.06 178.186 23.3236C178.186 18.5873 174.407 14.7477 169.746 14.7477C165.084 14.7477 161.305 18.5873 161.305 23.3236C161.305 28.06 165.084 31.8996 169.746 31.8996Z" fill="#FFB6B6"/>
<path d="M164.014 14.5817C165.493 13.6655 167.187 13.1699 168.919 13.1467C170.651 13.1235 172.357 13.5736 173.86 14.4498C175.362 15.326 176.605 16.5962 177.459 18.1276C178.312 19.6589 178.746 21.3953 178.713 23.155C174.412 24.2521 169.894 25.0917 165.307 23.4174L164.224 20.7239L163.585 23.4194C162.189 23.9994 160.788 24.4903 159.388 23.4138C159.331 21.659 159.728 19.9198 160.54 18.3699C161.351 16.82 162.549 15.5137 164.014 14.5817Z" fill="#2F2E41"/>
<path d="M29.4909 100.685C35.2407 100.685 39.9019 95.9491 39.9019 90.1069C39.9019 84.2647 35.2407 79.5287 29.4909 79.5287C23.741 79.5287 19.0798 84.2647 19.0798 90.1069C19.0798 95.9491 23.741 100.685 29.4909 100.685Z" fill="#FFB8B8"/>
<path d="M99.7251 173.386C104.622 173.386 108.591 169.352 108.591 164.377C108.591 159.402 104.622 155.369 99.7251 155.369C94.8284 155.369 90.8589 159.402 90.8589 164.377C90.8589 169.352 94.8284 173.386 99.7251 173.386Z" fill="#9E616A"/>
<path d="M99.6814 32.7234C104.945 32.7234 109.211 28.3883 109.211 23.0406C109.211 17.6929 104.945 13.3578 99.6814 13.3578C94.4182 13.3578 90.1516 17.6929 90.1516 23.0406C90.1516 28.3883 94.4182 32.7234 99.6814 32.7234Z" fill="#FFB8B8"/>
<path d="M108.072 16.6439C108.072 16.6439 110.553 11.8244 105.095 11.3863C105.095 11.3863 100.441 7.09701 95.6977 10.6021C95.6977 10.6021 93.1104 10.6021 91.6956 13.5769C91.6956 13.5769 89.6607 12.7928 89.2135 14.8914C89.2135 14.8914 87.7245 19.2727 89.2135 23.216C90.7025 27.1592 91.1971 27.5974 91.1971 27.5974C91.1971 27.5974 90.1524 22.704 96.1079 22.2659C102.063 21.8277 107.527 18.037 108.023 22.8565C108.52 27.676 109.065 25.4988 109.065 25.4988C109.065 25.4988 113.779 18.6155 108.072 16.6439Z" fill="#2F2E41"/>
<path d="M169.968 101.57C175.121 101.57 179.297 97.3263 179.297 92.0913C179.297 86.8563 175.121 82.6125 169.968 82.6125C164.816 82.6125 160.639 86.8563 160.639 92.0913C160.639 97.3263 164.816 101.57 169.968 101.57Z" fill="#FFB6B6"/>
<path d="M41.336 163.2V163.2L41.1914 163.465C42.4785 160.242 41.3081 156.271 39.012 153.841C36.716 151.41 33.5241 150.299 30.381 149.858C28.0478 149.531 25.626 149.541 23.4074 150.409C20.1947 151.667 17.7401 154.578 15.6907 157.606C14.7533 158.991 13.8316 160.57 13.925 162.301C14.0117 163.908 14.9503 165.271 15.7189 166.634C16.4876 167.997 17.1295 169.689 16.5778 171.176C16.2491 172.063 15.5543 172.701 14.9906 173.426C14.4268 174.152 13.9631 175.132 14.2354 176.042C14.3563 176.39 14.564 176.7 14.8383 176.942C15.1125 177.185 15.4439 177.35 15.8 177.423C16.4815 177.585 17.1885 177.479 17.8787 177.373L35.7939 174.623C37.0113 174.436 38.1661 173.953 39.1599 173.215C40.1538 172.476 40.9571 171.505 41.5015 170.383C42.0459 169.261 42.3151 168.022 42.2863 166.771C42.2575 165.52 41.9314 164.295 41.336 163.2Z" fill="#2F2E41"/>
<path d="M36.6562 167.022C37.4311 162.171 34.1883 157.599 29.4133 156.812C24.6382 156.025 20.1391 159.319 19.3642 164.171C18.5893 169.023 21.8321 173.594 26.6072 174.382C31.3822 175.169 35.8813 171.874 36.6562 167.022Z" fill="#FFB9B9"/>
<path d="M51.328 189.911C46.2648 195.765 39.1392 199.361 31.4894 199.923C23.8395 200.484 16.2791 197.967 10.4402 192.914L12.9469 185.807C13.5134 184.545 14.4073 183.463 15.5329 182.678C16.6584 181.892 17.9731 181.433 19.336 181.349L20.9307 181.25L24.7333 177.917C24.7333 177.917 34.979 177.546 34.827 177.368L41.0332 181.161L41.0281 181.135L43.4678 181.286C44.8308 181.37 46.1456 181.829 47.2713 182.614C48.3969 183.4 49.2907 184.482 49.8569 185.744L51.328 189.911Z" fill="#F50057"/>
<path d="M121.918 189.911C116.854 195.765 109.729 199.361 102.079 199.923C94.4291 200.484 86.8687 197.967 81.0298 192.914L83.5365 185.807C84.103 184.545 84.9969 183.463 86.1225 182.678C87.248 181.892 88.5627 181.433 89.9256 181.349L91.5203 181.25L95.3229 177.917C95.3229 177.917 105.569 177.546 105.417 177.368L111.623 181.161L111.618 181.135L114.057 181.286C115.42 181.37 116.735 181.829 117.861 182.614C118.986 183.4 119.88 184.482 120.447 185.744L121.918 189.911Z" fill="#F50057"/>
<path d="M36.3184 157.337C36.0923 156.121 34.8724 155.566 33.8272 155.296C30.7954 154.51 27.6416 154.334 24.5433 154.778C22.2847 155.105 19.9725 155.827 18.3337 157.618C17.0123 159.127 16.2635 161.064 16.222 163.083C16.1552 164.29 16.4207 165.492 16.9886 166.555C17.5784 167.569 18.5836 168.305 19.6213 168.279L19.7263 168.65C24.124 168.028 28.209 165.247 30.7818 161.126C30.299 162.878 29.338 164.455 28.0101 165.676C30.9791 164.469 33.56 162.448 35.4651 159.838C35.9853 159.136 36.4904 158.261 36.3184 157.337Z" fill="#2F2E41"/>
<path d="M51.0704 117.403C46.0072 123.257 38.8816 126.853 31.2318 127.414C23.582 127.976 16.0215 125.459 10.1826 120.406L12.6893 113.299C13.2558 112.036 14.1497 110.955 15.2753 110.169C16.4008 109.384 17.7156 108.925 19.0784 108.841L20.6731 108.741L24.4757 105.409C24.4757 105.409 34.7215 105.037 34.5695 104.859L40.7757 108.652L40.7705 108.626L43.2102 108.778C44.5732 108.862 45.8881 109.321 47.0137 110.106C48.1393 110.891 49.0332 111.973 49.5994 113.236L51.0704 117.403Z" fill="#F50057"/>
<path d="M120.565 117.759C115.502 123.613 108.376 127.209 100.726 127.771C93.0766 128.332 85.5162 125.815 79.6772 120.762L82.1839 113.655C82.7504 112.393 83.6444 111.311 84.7699 110.526C85.8955 109.74 87.2102 109.281 88.5731 109.197L90.1678 109.098L93.9703 105.765C93.9703 105.765 104.216 105.394 104.064 105.216L110.27 109.009L110.265 108.982L112.705 109.134C114.068 109.218 115.383 109.677 116.508 110.462C117.634 111.248 118.528 112.33 119.094 113.592L120.565 117.759Z" fill="#F50057"/>
<path d="M192.7 117.759C187.637 123.613 180.512 127.209 172.862 127.771C165.212 128.332 157.651 125.815 151.812 120.762L154.319 113.655C154.886 112.393 155.78 111.311 156.905 110.526C158.031 109.74 159.345 109.281 160.708 109.197L162.303 109.098L166.106 105.765C166.106 105.765 176.351 105.394 176.199 105.216L182.406 109.009L182.4 108.982L184.84 109.134C186.203 109.218 187.518 109.677 188.644 110.462C189.769 111.248 190.663 112.33 191.229 113.592L192.7 117.759Z" fill="#F50057"/>
<path d="M51.0704 49.3449C46.0072 55.1985 38.8816 58.7943 31.2318 59.3561C23.582 59.9178 16.0215 57.4004 10.1826 52.3474L12.6893 45.2405C13.2558 43.9782 14.1497 42.8964 15.2753 42.1111C16.4008 41.3258 17.7156 40.8666 19.0784 40.7827L20.6731 40.6832L24.4757 37.351C24.4757 37.351 34.7215 36.9793 34.5695 36.8013L40.7757 40.5942L40.7705 40.568L43.2102 40.7199C44.5732 40.8034 45.8881 41.2625 47.0137 42.0478C48.1393 42.8332 49.0332 43.9152 49.5994 45.1777L51.0704 49.3449Z" fill="#F50057"/>
<path d="M120.307 49.4393C115.244 55.2929 108.119 58.8887 100.469 59.4504C92.819 60.0122 85.2586 57.4948 79.4197 52.4417L81.9264 45.3349C82.4928 44.0726 83.3868 42.9908 84.5123 42.2055C85.6379 41.4201 86.9526 40.9609 88.3155 40.877L89.9102 40.7776L93.7127 37.4453C93.7127 37.4453 103.959 37.0736 103.807 36.8956L110.013 40.6886L110.008 40.6624L112.447 40.8142C113.81 40.8977 115.125 41.3568 116.251 42.1422C117.376 42.9275 118.27 44.0095 118.836 45.272L120.307 49.4393Z" fill="#F50057"/>
<path d="M192.442 49.4393C187.379 55.2929 180.254 58.8887 172.604 59.4504C164.954 60.0122 157.394 57.4948 151.555 52.4417L154.061 45.3349C154.628 44.0726 155.522 42.9908 156.647 42.2055C157.773 41.4201 159.088 40.9609 160.451 40.877L162.045 40.7776L165.848 37.4453C165.848 37.4453 176.094 37.0736 175.942 36.8956L182.148 40.6886L182.143 40.6624L184.582 40.8142C185.945 40.8977 187.26 41.3568 188.386 42.1422C189.511 42.9275 190.405 44.0095 190.971 45.272L192.442 49.4393Z" fill="#F50057"/>
<path d="M179.807 86.2127C179.019 83.3458 177.228 80.8698 174.77 79.2495C172.812 77.9767 170.368 77.3268 168.149 78C165.93 78.6731 164.093 80.8856 164.238 83.2761C163.437 82.9992 162.527 83.3676 161.94 83.9971C161.354 84.6265 161.039 85.4733 160.813 86.3162C160.101 88.9964 160.148 91.8263 160.949 94.4805L160.905 94.8614C161.988 94.6795 162.809 93.7358 163.319 92.7303C163.83 91.7248 164.124 90.6093 164.677 89.6284C165.231 88.6475 166.15 87.7725 167.246 87.7419L167.149 89.4446C168.092 88.9508 169.036 88.4571 169.979 87.9633C169.754 88.5086 169.53 89.0539 169.306 89.5992C170.129 89.2494 170.953 88.8996 171.777 88.5498C171.685 89.0741 171.593 89.5985 171.501 90.1228C172.318 88.2336 174.844 87.4036 176.562 88.4599C177.56 89.0734 178.215 90.1666 178.56 91.3147C178.904 92.4628 178.972 93.6774 179.038 94.8777C180.311 92.1771 180.584 89.1011 179.807 86.2127Z" fill="#2F2E41"/>
<path d="M91.669 168.542C91.6516 168.493 91.6357 168.443 91.6185 168.394C91.5844 168.424 91.5517 168.456 91.5146 168.484L91.669 168.542Z" fill="#2F2E41"/>
<path d="M110.346 161.172C110.3 160.258 110.065 159.364 109.654 158.55C109.244 157.735 108.668 157.018 107.966 156.445C107.449 156.03 106.851 155.679 106.509 155.107C106.314 154.702 106.149 154.283 106.014 153.854C105.334 152.208 103.394 151.333 101.654 151.582C99.9138 151.831 98.408 153.02 97.3937 154.478C96.894 154.235 96.3361 154.142 95.7861 154.211C95.2361 154.28 94.7171 154.508 94.2904 154.867C93.8638 155.226 93.5474 155.702 93.3787 156.239C93.2101 156.775 93.1962 157.349 93.3388 157.893C92.4378 157.156 90.9802 157.746 90.4178 158.773C89.8553 159.801 89.9446 161.058 90.1118 162.221C90.4147 164.324 90.9194 166.391 91.6186 168.393C92.4959 167.608 92.442 166.179 92.3348 164.97C92.2234 163.715 92.2901 162.182 93.3706 161.563C94.4145 160.964 95.6815 161.621 96.8326 161.961C97.7426 162.223 98.6977 162.281 99.6321 162.132C100.566 161.983 101.458 161.629 102.245 161.096C102.844 160.684 103.378 160.168 104.025 159.836C104.671 159.505 105.493 159.39 106.095 159.799C106.645 160.172 106.868 160.869 107.055 161.513C107.498 163.04 107.942 164.567 108.385 166.094C109.035 165.461 109.547 164.695 109.885 163.847C110.223 162.998 110.38 162.087 110.346 161.172Z" fill="#2F2E41"/>
<path d="M40.4746 86.3971C40.5476 85.6073 40.5811 84.8143 40.5749 84.021C40.6174 82.4522 40.3345 80.8919 39.7446 79.4415C39.0191 77.8355 37.7254 76.5657 36.1208 75.8844C34.5303 75.2326 32.7528 75.2341 31.1634 75.8888C29.7284 74.9676 28.134 74.2374 26.4549 74.1469C24.7758 74.0565 23.0005 74.6894 21.9658 76.0827C21.7347 76.4504 21.4723 76.7969 21.1815 77.1179C20.3497 77.9006 19.0857 77.7877 17.9801 77.6277C18.476 78.0595 18.972 78.4913 19.4681 78.9231C18.8679 79.0824 18.2676 79.2418 17.6672 79.4011C18.3677 79.8327 19.0682 80.2644 19.7686 80.6961C17.7351 81.9363 16.8108 84.6431 17.0549 87.1014C17.2859 89.4289 18.3918 91.5573 19.7139 93.449C20.2413 92.3182 20.1276 90.9651 20.1189 89.6915C20.1141 89.2785 20.1389 88.8655 20.1931 88.4561C24.6611 89.5443 29.3295 90.2427 34.0638 88.5144L35.0139 86.1518C35.1472 86.1657 35.2806 86.1788 35.4139 86.1932L35.9643 88.5166C37.2122 89.0349 38.4628 89.4878 39.7138 89.0118C39.7747 89.3707 39.8113 89.737 39.8395 90.089C39.9469 89.6679 40.04 89.2437 40.124 88.8179C40.2894 88.7277 40.4477 88.625 40.5977 88.5104C40.6279 87.8035 40.5867 87.0954 40.4746 86.3971Z" fill="#2F2E41"/>
</g>
<defs>
<clipPath id="clip0_1_201">
<rect width="200" height="200" fill="white"/>
</clipPath>
</defs>
</svg>
