<svg width="175" height="313" viewBox="0 0 175 313" fill="none" xmlns="http://www.w3.org/2000/svg">
<g clip-path="url(#clip0_1_526)">
<path d="M135.917 293.718H43.054C39.6701 293.718 36.3193 293.047 33.1929 291.745C30.0665 290.442 27.2258 288.533 24.833 286.126C22.4402 283.719 20.5421 280.861 19.2471 277.717C17.9521 274.572 17.2856 271.201 17.2856 267.797V25.9202C17.2934 19.0481 20.0107 12.4597 24.8416 7.60043C29.6724 2.74114 36.2222 0.00777951 43.054 0H135.916C142.748 0.0077582 149.298 2.74111 154.129 7.6004C158.96 12.4597 161.677 19.0481 161.685 25.9202V69.607H163.285V101.795H161.685V267.797C161.685 274.672 158.97 281.265 154.137 286.126C149.305 290.987 142.751 293.717 135.917 293.718ZM43.054 0.804951C36.4344 0.812469 30.088 3.46094 25.4071 8.16933C20.7263 12.8777 18.0934 19.2615 18.0859 25.9202V267.797C18.0858 271.096 18.7316 274.361 19.9864 277.409C21.2411 280.456 23.0803 283.224 25.3988 285.557C27.7173 287.889 30.4697 289.739 33.499 291.001C36.5283 292.263 39.7751 292.913 43.0539 292.913H135.916C142.538 292.913 148.889 290.267 153.571 285.557C158.254 280.847 160.884 274.459 160.884 267.798V100.99H162.484V70.4119H160.884V25.9202C160.877 19.2615 158.244 12.8777 153.563 8.16933C148.882 3.46094 142.536 0.81247 135.916 0.804951H43.054Z" fill="#3F3D56"/>
<path d="M136.939 287.079H43.6318C38.5028 287.073 33.5856 285.021 29.9588 281.373C26.3321 277.725 24.292 272.779 24.286 267.62V26.0981C24.2919 20.9389 26.3321 15.9928 29.9588 12.3446C33.5856 8.69653 38.5028 6.6444 43.6318 6.63843H55.546L55.3218 7.19262C54.7903 8.50637 54.5879 9.93138 54.7324 11.3423C54.8769 12.7532 55.3639 14.1067 56.1505 15.2839C56.9371 16.4611 57.9992 17.4258 59.2434 18.0932C60.4876 18.7606 61.8758 19.1102 63.2859 19.1112H116.485C117.895 19.1101 119.284 18.7605 120.528 18.0931C121.772 17.4257 122.834 16.461 123.621 15.2838C124.407 14.1067 124.894 12.7531 125.039 11.3422C125.183 9.93134 124.981 8.50636 124.449 7.19262L124.225 6.63843H136.939C142.068 6.64442 146.986 8.69657 150.612 12.3447C154.239 15.9928 156.279 20.939 156.285 26.0981V267.62C156.279 272.779 154.239 277.725 150.612 281.373C146.986 285.021 142.068 287.073 136.939 287.079ZM43.6318 7.44338C38.715 7.44909 34.0011 9.41633 30.5244 12.9135C27.0477 16.4107 25.0919 21.1523 25.0862 26.0981V267.62C25.092 272.565 27.0477 277.307 30.5244 280.804C34.0012 284.301 38.715 286.269 43.6318 286.274H136.939C141.856 286.269 146.57 284.301 150.047 280.804C153.524 277.307 155.479 272.565 155.485 267.62V26.0981C155.479 21.1524 153.524 16.4108 150.047 12.9136C146.57 9.41636 141.856 7.44911 136.939 7.44338H125.395C125.87 8.86564 126.002 10.3811 125.779 11.8646C125.557 13.3482 124.987 14.7573 124.117 15.9757C123.247 17.1941 122.101 18.1868 120.774 18.872C119.447 19.5571 117.977 19.915 116.486 19.9162H63.2856C61.7941 19.9151 60.3242 19.5572 58.9973 18.872C57.6703 18.1869 56.5244 17.1942 55.6541 15.9758C54.7837 14.7574 54.2139 13.3483 53.9916 11.8647C53.7693 10.3811 53.901 8.86567 54.3757 7.44338H43.6318Z" fill="#CCCCCC"/>
<path d="M166.548 157.274H8.4517C6.21095 157.271 4.06268 156.375 2.47823 154.781C0.893769 153.187 0.00252154 151.026 0 148.772V97.7634C0.00252154 95.5095 0.893769 93.3486 2.47823 91.7548C4.06268 90.161 6.21095 89.2645 8.4517 89.262H166.548C168.789 89.2645 170.937 90.161 172.522 91.7548C174.106 93.3486 174.997 95.5095 175 97.7634V148.772C174.997 151.026 174.106 153.187 172.522 154.781C170.937 156.375 168.789 157.271 166.548 157.274Z" fill="white"/>
<path d="M166.548 157.274H8.4517C6.21095 157.271 4.06268 156.375 2.47823 154.781C0.893769 153.187 0.00252154 151.026 0 148.772V97.7634C0.00252154 95.5095 0.893769 93.3486 2.47823 91.7548C4.06268 90.161 6.21095 89.2645 8.4517 89.262H166.548C168.789 89.2645 170.937 90.161 172.522 91.7548C174.106 93.3486 174.997 95.5095 175 97.7634V148.772C174.997 151.026 174.106 153.187 172.522 154.781C170.937 156.375 168.789 157.271 166.548 157.274ZM8.4517 90.2621C6.47457 90.2644 4.57906 91.0554 3.18101 92.4617C1.78296 93.868 0.996555 95.7747 0.994314 97.7634V148.772C0.996555 150.761 1.78296 152.668 3.18101 154.074C4.57906 155.48 6.47457 156.271 8.4517 156.274H166.548C168.525 156.271 170.421 155.48 171.819 154.074C173.217 152.668 174.003 150.761 174.006 148.772V97.7634C174.003 95.7747 173.217 93.868 171.819 92.4617C170.421 91.0554 168.525 90.2644 166.548 90.2621H8.4517Z" fill="#3F3D56"/>
<path d="M108.232 120.517H53.0473C51.9925 120.517 50.9809 120.096 50.235 119.346C49.4891 118.595 49.0701 117.578 49.0701 116.517C49.0701 115.456 49.4891 114.438 50.235 113.688C50.9809 112.937 51.9925 112.516 53.0473 112.516H108.232C109.287 112.516 110.298 112.937 111.044 113.688C111.79 114.438 112.209 115.456 112.209 116.517C112.209 117.578 111.79 118.595 111.044 119.346C110.298 120.096 109.287 120.517 108.232 120.517Z" fill="#F7074F"/>
<path d="M159.439 134.02H53.0473C51.9925 134.02 50.9809 133.598 50.235 132.848C49.4891 132.098 49.0701 131.08 49.0701 130.019C49.0701 128.958 49.4891 127.94 50.235 127.19C50.9809 126.44 51.9925 126.018 53.0473 126.018H159.439C160.494 126.018 161.506 126.44 162.252 127.19C162.998 127.94 163.417 128.958 163.417 130.019C163.417 131.08 162.998 132.098 162.252 132.848C161.506 133.598 160.494 134.02 159.439 134.02Z" fill="#F7074F"/>
<path d="M26.4983 138.27C34.7355 138.27 41.413 131.554 41.413 123.268C41.413 114.982 34.7355 108.265 26.4983 108.265C18.2611 108.265 11.5835 114.982 11.5835 123.268C11.5835 131.554 18.2611 138.27 26.4983 138.27Z" fill="#F7074F"/>
<path d="M159.433 150.273H145.513C144.458 150.273 143.447 149.851 142.701 149.101C141.955 148.35 141.536 147.333 141.536 146.272C141.536 145.211 141.955 144.193 142.701 143.443C143.447 142.693 144.458 142.271 145.513 142.271H159.433C159.956 142.271 160.473 142.375 160.956 142.576C161.438 142.777 161.877 143.071 162.246 143.443C162.615 143.814 162.908 144.255 163.108 144.741C163.308 145.226 163.411 145.746 163.411 146.272C163.411 146.797 163.308 147.317 163.108 147.803C162.908 148.288 162.615 148.729 162.246 149.101C161.877 149.472 161.438 149.767 160.956 149.968C160.473 150.169 159.956 150.273 159.433 150.273Z" fill="white"/>
<path d="M159.433 150.273H145.513C144.458 150.273 143.447 149.851 142.701 149.101C141.955 148.35 141.536 147.333 141.536 146.272C141.536 145.211 141.955 144.193 142.701 143.443C143.447 142.693 144.458 142.271 145.513 142.271H159.433C159.956 142.271 160.473 142.375 160.956 142.576C161.438 142.777 161.877 143.071 162.246 143.443C162.615 143.814 162.908 144.255 163.108 144.741C163.308 145.226 163.411 145.746 163.411 146.272C163.411 146.797 163.308 147.317 163.108 147.803C162.908 148.288 162.615 148.729 162.246 149.101C161.877 149.472 161.438 149.767 160.956 149.968C160.473 150.169 159.956 150.273 159.433 150.273Z" fill="#CCCCCC"/>
<path d="M135.487 76.1842H47.5156C46.2688 76.1828 45.0734 75.6839 44.1917 74.7971C43.3101 73.9103 42.8141 72.7078 42.8127 71.4536V43.0703C42.8141 41.8161 43.3101 40.6137 44.1917 39.7268C45.0734 38.84 46.2688 38.3411 47.5156 38.3397H135.487C136.734 38.3411 137.929 38.84 138.811 39.7268C139.692 40.6137 140.188 41.8161 140.19 43.0703V71.4536C140.188 72.7078 139.692 73.9103 138.811 74.7971C137.929 75.6839 136.734 76.1828 135.487 76.1842ZM47.5156 38.8963C46.4155 38.8975 45.3607 39.3377 44.5828 40.1202C43.8049 40.9027 43.3673 41.9636 43.366 43.0703V71.4536C43.3673 72.5603 43.8049 73.6212 44.5828 74.4037C45.3607 75.1862 46.4155 75.6264 47.5156 75.6277H135.487C136.587 75.6264 137.642 75.1862 138.42 74.4037C139.198 73.6212 139.635 72.5603 139.636 71.4536V43.0703C139.635 41.9636 139.198 40.9027 138.42 40.1202C137.642 39.3377 136.587 38.8975 135.487 38.8963H47.5156Z" fill="#CCCCCC"/>
<path d="M103.037 55.7315H72.3304C71.7439 55.7307 71.1818 55.4958 70.7674 55.0784C70.353 54.661 70.1202 54.0952 70.1202 53.5053C70.1202 52.9154 70.353 52.3497 70.7674 51.9323C71.1818 51.5149 71.7439 51.28 72.3304 51.2792H103.037C103.624 51.28 104.186 51.5149 104.6 51.9323C105.015 52.3497 105.247 52.9154 105.247 53.5053C105.247 54.0952 105.015 54.661 104.6 55.0784C104.186 55.4958 103.624 55.7307 103.037 55.7315Z" fill="#E6E6E6"/>
<path d="M131.531 63.2447H72.3304C71.744 63.2439 71.1818 63.009 70.7674 62.5916C70.353 62.1742 70.1202 61.6084 70.1202 61.0185C70.1202 60.4286 70.353 59.8628 70.7674 59.4454C71.1818 59.028 71.744 58.7932 72.3304 58.7924H131.531C131.822 58.792 132.11 58.8493 132.379 58.961C132.648 59.0726 132.892 59.2366 133.098 59.4433C133.304 59.6501 133.467 59.8956 133.579 60.1659C133.69 60.4362 133.747 60.7259 133.747 61.0185C133.747 61.3111 133.69 61.6008 133.579 61.8711C133.467 62.1414 133.304 62.3869 133.098 62.5937C132.892 62.8004 132.648 62.9644 132.379 63.0761C132.11 63.1878 131.822 63.245 131.531 63.2447Z" fill="#E6E6E6"/>
<path d="M57.5574 65.6099C62.1409 65.6099 65.8565 61.8724 65.8565 57.2619C65.8565 52.6514 62.1409 48.9138 57.5574 48.9138C52.9738 48.9138 49.2582 52.6514 49.2582 57.2619C49.2582 61.8724 52.9738 65.6099 57.5574 65.6099Z" fill="#E6E6E6"/>
<path d="M131.528 72.2884H123.782C123.491 72.2887 123.203 72.2315 122.934 72.1198C122.665 72.0081 122.421 71.8441 122.215 71.6374C122.009 71.4306 121.846 71.1851 121.735 70.9148C121.623 70.6445 121.566 70.3548 121.566 70.0622C121.566 69.7696 121.623 69.4799 121.735 69.2096C121.846 68.9393 122.009 68.6938 122.215 68.487C122.421 68.2803 122.665 68.1164 122.934 68.0047C123.203 67.893 123.491 67.8357 123.782 67.8361H131.528C132.114 67.8369 132.676 68.0717 133.091 68.4891C133.505 68.9065 133.738 69.4723 133.738 70.0622C133.738 70.6521 133.505 71.2179 133.091 71.6353C132.676 72.0527 132.114 72.2876 131.528 72.2884Z" fill="white"/>
<path d="M131.528 72.2884H123.782C123.491 72.2887 123.203 72.2315 122.934 72.1198C122.665 72.0081 122.421 71.8441 122.215 71.6374C122.009 71.4306 121.846 71.1851 121.735 70.9148C121.623 70.6445 121.566 70.3548 121.566 70.0622C121.566 69.7696 121.623 69.4799 121.735 69.2096C121.846 68.9393 122.009 68.6938 122.215 68.487C122.421 68.2803 122.665 68.1164 122.934 68.0047C123.203 67.893 123.491 67.8357 123.782 67.8361H131.528C132.114 67.8369 132.676 68.0717 133.091 68.4891C133.505 68.9065 133.738 69.4723 133.738 70.0622C133.738 70.6521 133.505 71.2179 133.091 71.6353C132.676 72.0527 132.114 72.2876 131.528 72.2884Z" fill="#CCCCCC"/>
<path d="M135.487 207.391H47.5156C46.2688 207.39 45.0734 206.891 44.1917 206.004C43.3101 205.117 42.8141 203.915 42.8127 202.661V174.277C42.8141 173.023 43.3101 171.821 44.1917 170.934C45.0734 170.047 46.2688 169.548 47.5156 169.547H135.487C136.734 169.548 137.929 170.047 138.811 170.934C139.692 171.821 140.188 173.023 140.19 174.277V202.661C140.188 203.915 139.692 205.117 138.811 206.004C137.929 206.891 136.734 207.39 135.487 207.391ZM47.5156 170.103C46.4155 170.104 45.3607 170.545 44.5828 171.327C43.8049 172.11 43.3673 173.171 43.366 174.277V202.661C43.3673 203.767 43.8049 204.828 44.5828 205.611C45.3607 206.393 46.4155 206.833 47.5156 206.835H135.487C136.587 206.833 137.642 206.393 138.42 205.611C139.198 204.828 139.635 203.767 139.636 202.661V174.277C139.635 173.171 139.198 172.11 138.42 171.327C137.642 170.545 136.587 170.104 135.487 170.103H47.5156Z" fill="#CCCCCC"/>
<path d="M103.037 186.938H72.3303C71.7433 186.938 71.1804 186.704 70.7654 186.286C70.3504 185.869 70.1172 185.303 70.1172 184.712C70.1172 184.122 70.3504 183.556 70.7654 183.138C71.1804 182.721 71.7433 182.486 72.3303 182.486H103.037C103.624 182.487 104.186 182.722 104.6 183.139C105.015 183.557 105.247 184.122 105.247 184.712C105.247 185.302 105.015 185.868 104.6 186.285C104.186 186.703 103.624 186.938 103.037 186.938Z" fill="#E6E6E6"/>
<path d="M131.531 194.452H72.3304C71.744 194.451 71.1818 194.216 70.7674 193.798C70.353 193.381 70.1202 192.815 70.1202 192.225C70.1202 191.636 70.353 191.07 70.7674 190.652C71.1818 190.235 71.744 190 72.3304 189.999H131.531C132.118 189.999 132.681 190.234 133.096 190.651C133.511 191.069 133.744 191.635 133.744 192.225C133.744 192.816 133.511 193.382 133.096 193.8C132.681 194.217 132.118 194.452 131.531 194.452Z" fill="#E6E6E6"/>
<path d="M57.5574 196.817C62.1409 196.817 65.8565 193.079 65.8565 188.469C65.8565 183.858 62.1409 180.121 57.5574 180.121C52.9738 180.121 49.2582 183.858 49.2582 188.469C49.2582 193.079 52.9738 196.817 57.5574 196.817Z" fill="#E6E6E6"/>
<path d="M131.528 203.495H123.782C123.195 203.495 122.632 203.261 122.217 202.843C121.802 202.426 121.569 201.86 121.569 201.269C121.569 200.679 121.802 200.113 122.217 199.695C122.632 199.278 123.195 199.043 123.782 199.043H131.528C132.114 199.044 132.676 199.279 133.091 199.696C133.505 200.114 133.738 200.679 133.738 201.269C133.738 201.859 133.505 202.425 133.091 202.842C132.676 203.26 132.114 203.495 131.528 203.495Z" fill="white"/>
<path d="M131.528 203.495H123.782C123.195 203.495 122.632 203.261 122.217 202.843C121.802 202.426 121.569 201.86 121.569 201.269C121.569 200.679 121.802 200.113 122.217 199.695C122.632 199.278 123.195 199.043 123.782 199.043H131.528C132.114 199.044 132.676 199.279 133.091 199.696C133.505 200.114 133.738 200.679 133.738 201.269C133.738 201.859 133.505 202.425 133.091 202.842C132.676 203.26 132.114 203.495 131.528 203.495Z" fill="#CCCCCC"/>
<path d="M135.487 260.115H47.5156C46.2688 260.114 45.0734 259.615 44.1917 258.728C43.3101 257.841 42.8141 256.639 42.8127 255.385V227.001C42.8141 225.747 43.3101 224.545 44.1917 223.658C45.0734 222.771 46.2688 222.272 47.5156 222.271H135.487C136.734 222.272 137.929 222.771 138.811 223.658C139.692 224.545 140.188 225.747 140.19 227.001V255.385C140.188 256.639 139.692 257.841 138.811 258.728C137.929 259.615 136.734 260.114 135.487 260.115ZM47.5156 222.827C46.4155 222.829 45.3607 223.269 44.5828 224.051C43.8049 224.834 43.3673 225.895 43.366 227.001V255.385C43.3673 256.491 43.8049 257.552 44.5828 258.335C45.3607 259.117 46.4155 259.558 47.5156 259.559H135.487C136.587 259.558 137.642 259.117 138.42 258.335C139.198 257.552 139.635 256.491 139.636 255.385V227.001C139.635 225.895 139.198 224.834 138.42 224.051C137.642 223.269 136.587 222.829 135.487 222.827H47.5156Z" fill="#CCCCCC"/>
<path d="M103.037 239.663H72.3303C71.7433 239.663 71.1804 239.428 70.7654 239.011C70.3504 238.593 70.1172 238.027 70.1172 237.436C70.1172 236.846 70.3504 236.28 70.7654 235.862C71.1804 235.445 71.7433 235.21 72.3303 235.21H103.037C103.624 235.211 104.186 235.446 104.6 235.863C105.015 236.281 105.247 236.847 105.247 237.436C105.247 238.026 105.015 238.592 104.6 239.01C104.186 239.427 103.624 239.662 103.037 239.663Z" fill="#E6E6E6"/>
<path d="M131.531 247.176H72.3304C71.744 247.175 71.1818 246.94 70.7674 246.523C70.353 246.105 70.1202 245.54 70.1202 244.95C70.1202 244.36 70.353 243.794 70.7674 243.377C71.1818 242.959 71.744 242.724 72.3304 242.724H131.531C132.118 242.724 132.681 242.958 133.096 243.376C133.511 243.793 133.744 244.359 133.744 244.95C133.744 245.54 133.511 246.106 133.096 246.524C132.681 246.941 132.118 247.176 131.531 247.176Z" fill="#E6E6E6"/>
<path d="M57.5574 249.541C62.1409 249.541 65.8565 245.804 65.8565 241.193C65.8565 236.583 62.1409 232.845 57.5574 232.845C52.9738 232.845 49.2582 236.583 49.2582 241.193C49.2582 245.804 52.9738 249.541 57.5574 249.541Z" fill="#E6E6E6"/>
<path d="M131.528 256.22H123.782C123.195 256.22 122.632 255.985 122.217 255.568C121.802 255.15 121.569 254.584 121.569 253.993C121.569 253.403 121.802 252.837 122.217 252.419C122.632 252.002 123.195 251.767 123.782 251.767H131.528C132.114 251.768 132.676 252.003 133.091 252.42C133.505 252.838 133.738 253.404 133.738 253.993C133.738 254.583 133.505 255.149 133.091 255.567C132.676 255.984 132.114 256.219 131.528 256.22Z" fill="white"/>
<path d="M131.528 256.22H123.782C123.195 256.22 122.632 255.985 122.217 255.568C121.802 255.15 121.569 254.584 121.569 253.993C121.569 253.403 121.802 252.837 122.217 252.419C122.632 252.002 123.195 251.767 123.782 251.767H131.528C132.114 251.768 132.676 252.003 133.091 252.42C133.505 252.838 133.738 253.404 133.738 253.993C133.738 254.583 133.505 255.149 133.091 255.567C132.676 255.984 132.114 256.219 131.528 256.22Z" fill="#CCCCCC"/>
</g>
<defs>
<clipPath id="clip0_1_526">
<rect width="175" height="313" fill="white"/>
</clipPath>
</defs>
</svg>
