<svg width="28" height="28" viewBox="0 0 28 28" fill="none" xmlns="http://www.w3.org/2000/svg">
<rect width="28" height="28" rx="14" fill="#FEE1EA"/>
<path d="M14 5.06238C9.07191 5.06238 5.0625 9.07179 5.0625 13.9999C5.0625 18.928 9.07191 22.9374 14 22.9374C18.9281 22.9374 22.9375 18.928 22.9375 13.9999C22.9375 9.07179 18.9281 5.06238 14 5.06238ZM15.375 18.1249H12.625C12.4427 18.1249 12.2678 18.0524 12.1389 17.9235C12.0099 17.7946 11.9375 17.6197 11.9375 17.4374C11.9375 17.255 12.0099 17.0802 12.1389 16.9512C12.2678 16.8223 12.4427 16.7499 12.625 16.7499H15.375C15.5573 16.7499 15.7322 16.8223 15.8611 16.9512C15.9901 17.0802 16.0625 17.255 16.0625 17.4374C16.0625 17.6197 15.9901 17.7946 15.8611 17.9235C15.7322 18.0524 15.5573 18.1249 15.375 18.1249ZM17.4375 15.3749H10.5625C10.3802 15.3749 10.2053 15.3024 10.0764 15.1735C9.94743 15.0446 9.875 14.8697 9.875 14.6874C9.875 14.505 9.94743 14.3302 10.0764 14.2012C10.2053 14.0723 10.3802 13.9999 10.5625 13.9999H17.4375C17.6198 13.9999 17.7947 14.0723 17.9236 14.2012C18.0526 14.3302 18.125 14.505 18.125 14.6874C18.125 14.8697 18.0526 15.0446 17.9236 15.1735C17.7947 15.3024 17.6198 15.3749 17.4375 15.3749ZM18.8125 12.6249H9.1875C9.00516 12.6249 8.8303 12.5524 8.70136 12.4235C8.57243 12.2946 8.5 12.1197 8.5 11.9374C8.5 11.755 8.57243 11.5802 8.70136 11.4512C8.8303 11.3223 9.00516 11.2499 9.1875 11.2499H18.8125C18.9948 11.2499 19.1697 11.3223 19.2986 11.4512C19.4276 11.5802 19.5 11.755 19.5 11.9374C19.5 12.1197 19.4276 12.2946 19.2986 12.4235C19.1697 12.5524 18.9948 12.6249 18.8125 12.6249Z" fill="#F7074F"/>
</svg>
