<svg width="46" height="49" viewBox="0 0 46 49" fill="none" xmlns="http://www.w3.org/2000/svg">
<path fill-rule="evenodd" clip-rule="evenodd" d="M23 48.1515C35.703 48.1515 46 37.542 46 24.4545C46 11.3671 35.703 0.757568 23 0.757568C10.297 0.757568 0 11.3671 0 24.4545C0 37.542 10.297 48.1515 23 48.1515Z" fill="#F7074F"/>
<path d="M27.18 25.2994V23.6097H23.82V20.1479H22.18V23.6097H18.82V25.2994H22.18V28.7612H23.82V25.2994H27.18ZM28.82 16.7273C29.273 16.7273 29.667 16.899 30 17.2424C30.333 17.5858 30.5 17.9911 30.5 18.4582V30.4509C30.5 30.9179 30.333 31.3233 30 31.6667C29.667 32.0101 29.273 32.1818 28.82 32.1818H17.18C16.713 32.1818 16.313 32.0101 15.98 31.6667C15.66 31.3233 15.5 30.9179 15.5 30.4509V18.4582C15.5 17.9911 15.66 17.5858 15.98 17.2424C16.313 16.899 16.713 16.7273 17.18 16.7273H28.82Z" fill="white"/>
</svg>
