<svg width="157" height="51" viewBox="0 0 157 51" fill="none" xmlns="http://www.w3.org/2000/svg">
<path d="M0 39C0 35.134 3.13401 32 7 32C10.866 32 14 35.134 14 39V51H0V39Z" fill="#E7E7E7"/>
<path d="M14 7C14 3.13401 17.134 0 21 0C24.866 0 28 3.13401 28 7V51H14V7Z" fill="#E7E7E7"/>
<path d="M28 20.5C28 16.3579 31.3579 13 35.5 13C39.6421 13 43 16.3579 43 20.5V51H28V20.5Z" fill="#E7E7E7"/>
<path d="M85 20.5C85 16.3579 88.3579 13 92.5 13V13C96.6421 13 100 16.3579 100 20.5V51H85V20.5Z" fill="#E7E7E7"/>
<path d="M43 29C43 25.134 46.134 22 50 22C53.866 22 57 25.134 57 29V51H43V29Z" fill="#E7E7E7"/>
<path d="M71 29C71 25.134 74.134 22 78 22C81.866 22 85 25.134 85 29V51H71V29Z" fill="#E7E7E7"/>
<path d="M57 33C57 29.134 60.134 26 64 26C67.866 26 71 29.134 71 33V51H57V33Z" fill="#E7E7E7"/>
<path d="M142 20.5C142 16.3579 145.358 13 149.5 13C153.642 13 157 16.3579 157 20.5V51H142V20.5Z" fill="#E7E7E7"/>
<path d="M100 29C100 25.134 103.134 22 107 22C110.866 22 114 25.134 114 29V51H100V29Z" fill="#E7E7E7"/>
<path d="M128 29C128 25.134 131.134 22 135 22C138.866 22 142 25.134 142 29V51H128V29Z" fill="#E7E7E7"/>
<path d="M114 33C114 29.134 117.134 26 121 26C124.866 26 128 29.134 128 33V51H114V33Z" fill="#E7E7E7"/>
</svg>
