<svg width="30" height="30" viewBox="0 0 30 30" fill="none" xmlns="http://www.w3.org/2000/svg">
<rect width="30" height="30" rx="8" fill="#29D697"/>
<g clip-path="url(#clip0_2_347)">
<path d="M21.6102 20.7533L15.7284 14.8715L8.85654 7.99963H8.3195L8.20985 8.27828C7.92042 9.01375 7.79676 9.76597 7.85228 10.4535C7.91556 11.2373 8.2133 11.9158 8.71337 12.4159L14.0779 17.7805L14.7855 17.0729L19.745 22.6186C20.2384 23.1119 21.0876 23.1412 21.6102 22.6186C22.1245 22.1043 22.1245 21.2676 21.6102 20.7533Z" fill="white"/>
<path d="M11.5917 16.5388L7.39024 20.7403C6.87602 21.2545 6.87602 22.0912 7.39024 22.6054C7.87874 23.0939 8.72381 23.1371 9.25543 22.6054L13.457 18.4039L11.5917 16.5388Z" fill="white"/>
<path d="M21.3632 10.497L18.9798 12.8803L18.3581 12.2585L20.7414 9.8752L20.1197 9.25346L17.7364 11.6368L17.1146 11.015L19.4979 8.63172L18.8762 8.01001L15.7675 11.1187C15.3872 11.499 15.1602 12.004 15.1281 12.5406C15.1199 12.6766 15.0891 12.8103 15.038 12.9375L17.0574 14.9569C17.1846 14.9058 17.3184 14.875 17.4543 14.8669C17.991 14.8348 18.4959 14.6077 18.8762 14.2274L21.9849 11.1187L21.3632 10.497Z" fill="white"/>
</g>
<defs>
<clipPath id="clip0_2_347">
<rect width="15" height="15" fill="white" transform="translate(7 8)"/>
</clipPath>
</defs>
</svg>
